PathFileType	4	(X/Y/Z)	./resultDataOpenSim/trcMotMarkerGrf/sub10/qtm-04-07.trc
DataRate	CameraRate	NumFrames	NumMarkers	Units	OrigDataRate	OrigDataStartFrame	OrigNumFrames
250.000000	250.000000	7	24	m	250.000000	71	562
Frame#	Time	L.Toe.Tip			R.Toe.Tip			L.Ankle.Lat			R.Ankle.Lat			L.Ankle.Med			R.Ankle.Med			L.Heel			R.Heel			L.Knee.Lat			R.Knee.Lat			L.Knee.Med			R.Knee.Med			L.Thigh.Upper			R.Thigh.Upper			L.ASIS			R.ASIS			V.Sacral			L.Acromium			R.Acromium			C7			L.Elbow			R.Elbow			L.Wrist.Lat			R.Wrist.Lat
		X1	Y1	Z1	X2	Y2	Z2	X3	Y3	Z3	X4	Y4	Z4	X5	Y5	Z5	X6	Y6	Z6	X7	Y7	Z7	X8	Y8	Z8	X9	Y9	Z9	X10	Y10	Z10	X11	Y11	Z11	X12	Y12	Z12	X13	Y13	Z13	X14	Y14	Z14	X15	Y15	Z15	X16	Y16	Z16	X17	Y17	Z17	X18	Y18	Z18	X19	Y19	Z19	X20	Y20	Z20	X21	Y21	Z21	X22	Y22	Z22	X23	Y23	Z23	X24	Y24	Z24

71	0.28	-1.427491	0.048448043	-0.15627874	-0.75006865	0.039291986	0.01580976	-1.4469529	0.17869324	-0.2014736	-0.8896242	0.052761922	0.047493297	-1.419339	0.18088644	-0.1230524	-0.87333054	0.079882157	-0.035085461	-1.4963443	0.22320435	-0.15712704	-0.94146348	0.02866872	-0.0014221774	-1.142187	0.41480121	-0.21422061	-0.87589576	0.45066234	0.081905752	-1.128628	0.37141942	-0.10120377	-0.87920792	0.45997787	-0.045642533	-1.0642479	0.78914254	-0.23486772	-1.0047306	0.84959344	0.14441612	-0.99102695	0.89767714	-0.18010496	-0.95257266	0.93219385	0.057684906	-1.170784	0.92948358	-0.034628009	-1.0069784	1.3865548	-0.19721513	-1.043866	1.3735012	0.12500182	-1.1094014	1.41225	-0.046407768	-1.0747489	1.0459558	-0.27295633	-1.1946947	1.0632936	0.13971072	-0.88848601	0.88779558	-0.22622777	-1.1629028	0.83610362	0.21459596
72	0.284	-1.4238446	0.050148052	-0.15651882	-0.75002101	0.039237898	0.015765396	-1.4377707	0.18166564	-0.20223724	-0.88951906	0.052759979	0.04746085	-1.4110964	0.18342012	-0.12355645	-0.87322318	0.07981331	-0.035179776	-1.4853279	0.2279912	-0.15774212	-0.94146649	0.02864209	-0.0014146604	-1.1321515	0.41439977	-0.21469115	-0.87302407	0.45066543	0.081931845	-1.1176554	0.37039215	-0.10168891	-0.87680173	0.45973741	-0.045642804	-1.0581933	0.78906513	-0.2340977	-0.99939557	0.8502074	0.14506246	-0.98541389	0.89827424	-0.17926155	-0.94728456	0.93273191	0.058196739	-1.1655105	0.92994326	-0.033997947	-1.0020068	1.3872644	-0.19644488	-1.0389478	1.3740338	0.12576471	-1.1045394	1.4127746	-0.045640739	-1.070494	1.0470661	-0.27246719	-1.1888488	1.0635492	0.14071052	-0.8851316	0.88741537	-0.22686353	-1.1567571	0.83628251	0.21586467
73	0.288	-1.4199319	0.051858113	-0.15678941	-0.74997793	0.039186708	0.015714519	-1.4284948	0.18455647	-0.20292701	-0.88950296	0.052758895	0.047444203	-1.4025034	0.18599009	-0.12402796	-0.87312625	0.079755856	-0.035264336	-1.4742754	0.23255976	-0.15844225	-0.94147628	0.028618789	-0.001410907	-1.1220875	0.41403195	-0.21511625	-0.87051572	0.45077389	0.08206388	-1.106687	0.36968171	-0.1021035	-0.87445661	0.4595245	-0.045638438	-1.052199	0.78908758	-0.23337332	-0.99410697	0.85077606	0.14568404	-0.97976524	0.89892613	-0.17842837	-0.94205517	0.9332301	0.058725597	-1.1602997	0.93033671	-0.033368368	-0.99704922	1.3879776	-0.19572899	-1.0339903	1.3745624	0.1264808	-1.0996878	1.413331	-0.044888169	-1.0662215	1.0481377	-0.27194468	-1.1830156	1.0637996	0.14175657	-0.88181136	0.88701972	-0.22756364	-1.1505119	0.83644577	0.21715945
74	0.292	-1.4156553	0.053621991	-0.15709306	-0.74994193	0.039138267	0.015657661	-1.4192134	0.18733927	-0.20353373	-0.88973486	0.052757485	0.047466404	-1.3934926	0.18852923	-0.12447553	-0.87303876	0.079703668	-0.035342484	-1.4632673	0.23685003	-0.1590864	-0.94149548	0.028598704	-0.0014116408	-1.1119005	0.41371888	-0.21552412	-0.86820767	0.45091288	0.082257823	-1.0957872	0.36930396	-0.10241744	-0.8718922	0.45934493	-0.045600812	-1.0462985	0.78922291	-0.23268063	-0.98886047	0.85130087	0.14627276	-0.9742003	0.89959852	-0.17765602	-0.93696818	0.93373699	0.059328146	-1.1551528	0.93066277	-0.032742302	-0.99210252	1.3886994	-0.19505352	-1.0289761	1.3750919	0.12716617	-1.0948388	1.4139287	-0.044150006	-1.0619199	1.0491734	-0.27137528	-1.1771863	1.064039	0.14285198	-0.87856086	0.88660288	-0.22833791	-1.1442425	0.83661685	0.21840347
75	0.296	-1.4109237	0.055501919	-0.15743753	-0.74991732	0.039092227	0.015595366	-1.4098649	0.19000436	-0.20405885	-0.89030836	0.052749003	0.047540523	-1.3842097	0.19097366	-0.12487837	-0.87295058	0.079650441	-0.03541559	-1.4522513	0.2408362	-0.15959536	-0.94152737	0.028580214	-0.0014131487	-1.1013829	0.41349262	-0.21599659	-0.86586039	0.45096157	0.082433537	-1.0849567	0.36925774	-0.10260817	-0.86893732	0.45920441	-0.045535898	-1.0405205	0.78947443	-0.23205292	-0.98363835	0.85178485	0.14682348	-0.96875866	0.90028409	-0.17697876	-0.93204077	0.9342686	0.060022762	-1.1500692	0.93093657	-0.0321133	-0.98717427	1.3894283	-0.19441035	-1.0239132	1.375628	0.12784298	-1.0899886	1.4145766	-0.043424112	-1.0575868	1.0501827	-0.27076983	-1.1713565	1.0642594	0.14399404	-0.87536554	0.88617332	-0.22916809	-1.1379716	0.83679903	0.21956143
76	0.3	-1.4056443	0.057557041	-0.15783757	-0.74991146	0.039049495	0.015528054	-1.4003632	0.19257379	-0.20450568	-0.89106339	0.052734219	0.047639639	-1.3749046	0.19328898	-0.12517128	-0.87285455	0.079594671	-0.0354851	-1.4411492	0.24451812	-0.16004709	-0.94157174	0.028562735	-0.0014121018	-1.0904007	0.41338266	-0.21659959	-0.86341781	0.45088107	0.082560805	-1.0741863	0.3695205	-0.1026827	-0.86579701	0.45909177	-0.045481786	-1.0348809	0.78983476	-0.23155483	-0.97840589	0.85222906	0.14733371	-0.963464	0.90098955	-0.17643447	-0.92714727	0.93478188	0.060736411	-1.1450463	0.93118903	-0.03146005	-0.9822734	1.390158	-0.19380539	-1.0188271	1.3761738	0.12852015	-1.0851371	1.4152754	-0.042707371	-1.0532624	1.0511853	-0.27020303	-1.1655328	1.0644569	0.14518085	-0.87219073	0.885743	-0.23003289	-1.1316635	0.83698986	0.22065822
77	0.304	-1.3996929	0.059828082	-0.15830406	-0.74992214	0.039010607	0.015459925	-1.3906877	0.19508432	-0.20488013	-0.8916819	0.052725644	0.047714104	-1.3656534	0.1954864	-0.12532355	-0.87275057	0.079539443	-0.035553441	-1.4299502	0.24791267	-0.16055939	-0.9416221	0.02854659	-0.0014099486	-1.0792109	0.41340278	-0.21723005	-0.860938	0.45072736	0.08264675	-1.0635249	0.37004671	-0.1026607	-0.86288908	0.45898095	-0.045468792	-1.0293622	0.79029797	-0.23119834	-0.97315075	0.85262675	0.14779993	-0.95837042	0.90171827	-0.17606506	-0.92212748	0.93521538	0.061361315	-1.1400816	0.9314453	-0.030752692	-0.9774011	1.3908809	-0.19324904	-1.0137435	1.3767285	0.12918632	-1.0802855	1.4160156	-0.042002167	-1.04901	1.0521953	-0.26976506	-1.1597192	1.0646339	0.14641103	-0.86903801	0.88532097	-0.23093726	-1.1252552	0.83719363	0.22174643
